<?xml version="1.0" encoding="utf-8"?>
<!-- Generator: Adobe Illustrator 24.3.0, SVG Export Plug-In . SVG Version: 6.00 Build 0)  -->
<svg version="1.1" id="Layer_1" xmlns="http://www.w3.org/2000/svg" xmlns:xlink="http://www.w3.org/1999/xlink" x="0px" y="0px"
	 viewBox="0 0 181 35" style="enable-background:new 0 0 181 35;" xml:space="preserve">
<path d="M33.92,13.75c-0.21-0.65-0.79-1.11-1.47-1.17l-9.26-0.84l-3.66-8.57c-0.27-0.63-0.88-1.04-1.57-1.04
	c-0.68,0-1.3,0.41-1.57,1.04l-3.66,8.57l-9.26,0.84c-0.68,0.06-1.25,0.52-1.47,1.17c-0.21,0.65-0.02,1.36,0.5,1.81l7,6.14
	l-2.06,9.09c-0.15,0.67,0.11,1.36,0.66,1.76c0.3,0.22,0.65,0.32,1,0.32c0.3,0,0.6-0.08,0.87-0.24l7.98-4.77l7.98,4.77
	c0.59,0.35,1.32,0.32,1.88-0.08c0.55-0.4,0.81-1.09,0.66-1.76l-2.06-9.09l7-6.14C33.93,15.11,34.13,14.4,33.92,13.75z"/>
<path d="M69.92,13.75c-0.21-0.65-0.79-1.11-1.47-1.17l-9.26-0.84l-3.66-8.57c-0.27-0.63-0.88-1.04-1.57-1.04s-1.3,0.41-1.57,1.04
	l-3.66,8.57l-9.26,0.84c-0.68,0.06-1.25,0.52-1.47,1.17c-0.21,0.65-0.02,1.36,0.5,1.81l7,6.14l-2.06,9.09
	c-0.15,0.67,0.11,1.36,0.66,1.76c0.3,0.22,0.65,0.32,1,0.32c0.3,0,0.6-0.08,0.87-0.24l7.98-4.77l7.98,4.77
	c0.59,0.35,1.32,0.32,1.88-0.08c0.55-0.4,0.81-1.09,0.66-1.76l-2.06-9.09l7-6.14C69.93,15.11,70.13,14.4,69.92,13.75z"/>
<path d="M105.92,13.75c-0.21-0.65-0.79-1.11-1.47-1.17l-9.26-0.84l-3.66-8.57c-0.27-0.63-0.88-1.04-1.57-1.04s-1.3,0.41-1.57,1.04
	l-3.66,8.57l-9.26,0.84c-0.68,0.06-1.25,0.52-1.47,1.17c-0.21,0.65-0.02,1.36,0.5,1.81l7,6.14l-2.06,9.09
	c-0.15,0.67,0.11,1.36,0.66,1.76c0.3,0.22,0.65,0.32,1,0.32c0.3,0,0.6-0.08,0.87-0.24l7.98-4.77l7.98,4.77
	c0.59,0.35,1.32,0.32,1.88-0.08c0.55-0.4,0.81-1.09,0.66-1.76l-2.06-9.09l7-6.14C105.93,15.11,106.13,14.4,105.92,13.75z"/>
<path d="M141.92,13.75c-0.21-0.65-0.79-1.11-1.47-1.17l-9.26-0.84l-3.66-8.57c-0.27-0.63-0.88-1.04-1.57-1.04s-1.3,0.41-1.57,1.04
	l-3.66,8.57l-9.26,0.84c-0.68,0.06-1.25,0.52-1.47,1.17c-0.21,0.65-0.02,1.36,0.5,1.81l7,6.14l-2.06,9.09
	c-0.15,0.67,0.11,1.36,0.66,1.76c0.3,0.22,0.65,0.32,1,0.32c0.3,0,0.6-0.08,0.87-0.24l7.98-4.77l7.98,4.77
	c0.59,0.35,1.32,0.32,1.88-0.08c0.55-0.4,0.81-1.09,0.66-1.76l-2.06-9.09l7-6.14C141.93,15.11,142.13,14.4,141.92,13.75z"/>
<path d="M177.92,13.75c-0.21-0.65-0.79-1.11-1.47-1.17l-9.26-0.84l-3.66-8.57c-0.27-0.63-0.88-1.04-1.57-1.04s-1.3,0.41-1.57,1.04
	l-3.66,8.57l-9.26,0.84c-0.68,0.06-1.25,0.52-1.47,1.17c-0.21,0.65-0.02,1.36,0.5,1.81l7,6.14l-2.06,9.09
	c-0.15,0.67,0.11,1.36,0.66,1.76c0.3,0.22,0.65,0.32,1,0.32c0.3,0,0.6-0.08,0.87-0.24l7.98-4.77l7.98,4.77
	c0.59,0.35,1.32,0.32,1.88-0.08c0.55-0.4,0.81-1.09,0.66-1.76l-2.06-9.09l7-6.14C177.93,15.11,178.13,14.4,177.92,13.75z"/>
</svg>
